<mxfile host="app.diagrams.net" modified="2023-04-14T06:26:51.749Z" agent="Mozilla/5.0 (Macintosh; Intel Mac OS X 10_15_7) AppleWebKit/537.36 (KHTML, like Gecko) Chrome/112.0.0.0 Safari/537.36" version="21.1.7" etag="2-WXVSgYQaVWU4s-B-UG" type="github">
  <diagram name="Trang-1" id="5hdaqXJM9fRDojhULJjE">
    <mxGraphModel>
      <root>
        <mxCell id="0" />
        <mxCell id="1" parent="0" />
      </root>
    </mxGraphModel>
  </diagram>
</mxfile>
